<?xml version="1.0" encoding="utf-8"?>
<svg xmlns="http://www.w3.org/2000/svg" version="1.1" width="580px" height="470px" viewBox="0 0 582 470" xmlns:bx="https://boxy-svg.com" preserveAspectRatio="none"><desc>Created with Fabric.js 5.3.0</desc><defs/><g style="" paint-order="stroke" transform="matrix(1.498169, 0, 0, 1.498169, 170.687775, 158.573288)"><g transform="matrix(0.7959402730577748 0 0 0.7959402730577748 0 2.842171e-14)"><g style="" paint-order="stroke"><g transform="matrix(1 0 0 1 -0.00006100000000230921 27.84839249999999)"><linearGradient id="SVGID_131_115285" gradientUnits="userSpaceOnUse" gradientTransform="matrix(0 229.603638 229.603638 0 14272.164802 301860.50568)" x1="-1314.607666" y1="-61.668098" x2="-1313.607666" y2="-61.668098"><stop offset="0" style="stop-color:rgb(233,233,233);stop-opacity: 1"/><stop offset="1" style="stop-color:rgb(233,233,233);stop-opacity: 1"/></linearGradient><path style="stroke: none; stroke-width: 0; stroke-dasharray: none; stroke-linecap: butt; stroke-dashoffset: 0; stroke-linejoin: miter; stroke-miterlimit: 4; fill: url(#SVGID_131_115285); fill-rule: nonzero; opacity: 1;" paint-order="stroke" transform=" translate(-112.94506849999999, -133.8765565)" d="M 116.516602 89.788292 L 141.561768 89.788292 L 141.561768 207.639824 C 133.625611 210.204643 125.22583 211.726891 116.516602 212.056328 L 116.516602 89.78829200000001 Z M 173.749878 59.788292 L 148.704468 59.788292 L 148.704468 205.01131399999997 C 157.897461 201.17800099999997 166.3302 195.90071799999998 173.749878 189.47994199999997 L 173.749878 59.788292 Z M 109.373779 69.788292 L 84.328369 69.788292 L 84.328369 207.63982399999998 C 92.26452599999999 210.20464299999998 100.664673 211.72689099999997 109.373779 212.05632799999998 L 109.373779 69.788292 Z M 44.997559 55.696785 C 29.471070000000005 72.31476599999999 19.952393000000004 94.61698200000001 19.952393000000004 119.153816 C 19.952393000000004 143.69065 29.471070000000005 165.992882 44.997559 182.610863 L 44.997559 55.696785 Z M 180.892578 182.610863 C 196.41906699999998 165.992882 205.93774399999998 143.690666 205.93774399999998 119.15381599999999 C 205.93774399999998 94.61696599999999 196.41906699999998 72.31476599999999 180.892578 55.69678499999999 L 180.892578 182.610863 Z M 52.140381 189.480019 C 59.559937 195.900719 67.992676 201.178002 77.18566899999999 205.011315 L 77.18566899999999 99.788293 L 52.14038099999999 99.788293 L 52.14038099999999 189.48002 Z" stroke-linecap="round"/></g><g transform="matrix(1 0 0 1 0 -0.0000150000000047612)"><linearGradient id="SVGID_132_115286" gradientUnits="userSpaceOnUse" gradientTransform="matrix(0 -293.02478 -293.02478 0 -17957.335808 -385000.566183)" x1="-1314.607666" y1="-61.668098" x2="-1313.607666" y2="-61.668098"><stop offset="0" style="stop-color:rgb(211,211,211);stop-opacity: 1"/><stop offset="1" style="stop-color:rgb(211,211,255);stop-opacity: 1"/></linearGradient><path style="stroke: none; stroke-width: 0; stroke-dasharray: none; stroke-linecap: butt; stroke-dashoffset: 0; stroke-linejoin: miter; stroke-miterlimit: 4; fill: url(#SVGID_132_115286); fill-rule: nonzero; opacity: 1;" paint-order="stroke" transform=" translate(-112.9451295, -106.028149)" d="M 218.259033 53.760109 C 223.246826 67.683098 225.890259 82.45719199999999 225.890259 97.25219 C 225.890259 156.620674 175.571655 210.750664 116.51647999999999 212.056298 C 165.53320399999998 202.93251899999998 202.645142 159.945061 202.645142 108.283746 C 202.645142 85.02465199999999 195.096314 63.54817299999999 182.34716799999998 46.111017 C 181.307617 44.747217 180.24072299999997 43.39966 179.11657699999998 42.088983 L 171.460571 51.654207 L 164.415527 0 L 212.671753 19.726135 L 202.920166 23.761741 C 203.288818 23.616294 207.162231 30.362365 207.555176 31.026473000000003 C 208.927246 33.345435 210.258301 35.70140000000001 211.52697799999999 38.078093 L 211.58862399999998 38.193686 C 214.24218799999997 43.184088 216.35498099999998 48.444815 218.25903399999999 53.760108 Z M 7.631226 53.760109 C 2.643433 67.683098 0 82.457191 0 97.25219 C 0 156.620674 50.318604 210.750664 109.373779 212.056298 C 60.357054999999995 202.93251899999998 23.245116999999993 159.945061 23.245116999999993 108.283746 C 23.245116999999993 85.02465199999999 30.79406699999999 63.54817299999999 43.54309099999999 46.111017 C 44.58264199999999 44.747217 45.64953599999999 43.39966 46.77368199999999 42.088983 L 54.429687999999985 51.654207 L 61.474731 0 L 13.218506 19.726135 L 22.970093 23.761741 C 22.601440999999998 23.616294 18.728028 30.362365 18.335082999999997 31.026473000000003 C 16.963012999999997 33.345435 15.632079999999998 35.70140000000001 14.363280999999997 38.078093 L 14.301634999999997 38.193686 C 11.648070999999998 43.184088 9.535277999999998 48.444815 7.631224999999997 53.760108 Z" stroke-linecap="round"/></g><g transform="matrix(1 0 0 1 -0.20721350000000882 26.282894)"><path style="stroke: none; stroke-width: 0; stroke-dasharray: none; stroke-linecap: butt; stroke-dashoffset: 0; stroke-linejoin: miter; stroke-miterlimit: 4; fill: rgb(255,255,255); fill-rule: nonzero; opacity: 1;" paint-order="stroke" transform=" translate(-112.73791599999998, -132.311058)" d="M 187.815308 92.84478 C 187.815308 98.827934 182.96496599999998 103.678215 176.981812 103.678215 C 175.678711 103.678215 174.435059 103.43633299999999 173.277833 103.014641 L 153.420167 133.16899899999999 C 155.246949 135.10833 156.374269 137.71404299999998 156.374269 140.58855499999999 C 156.374269 146.571709 151.523927 151.42199 145.540773 151.42199 C 143.419191 151.42199 141.446291 150.80297099999999 139.77527 149.74901599999998 L 123.025148 166.186455 C 124.01318500000001 167.820183 124.59216500000001 169.728874 124.59216500000001 171.777397 C 124.59216500000001 177.76055100000002 119.74194500000002 182.61083200000002 113.758791 182.61083200000002 C 107.77563699999999 182.61083200000002 102.925295 177.76055100000002 102.925295 171.777397 C 102.925295 169.532341 103.6084 167.44689200000002 104.777834 165.717216 L 85.870607 145.190727 C 84.30298 146.072441 82.49756000000001 146.58074200000001 80.570924 146.58074200000001 C 76.44604600000001 146.58074200000001 72.86084100000001 144.27471200000002 71.031007 140.88219500000002 L 59.312257 144.01140600000002 C 59.314943 144.11241900000002 59.327394000000005 144.21086900000003 59.327394000000005 144.312553 C 59.327394000000005 150.29570700000002 54.47705200000001 155.14598800000002 48.493898 155.14598800000002 C 42.510866 155.14598800000002 37.660524 150.29570700000002 37.660524 144.312553 C 37.660524 138.329399 42.510866 133.479118 48.493898 133.479118 C 52.618776000000004 133.479118 56.203859 135.785209 58.033815000000004 139.177665 L 69.75268700000001 136.048454 C 69.75000100000001 135.947441 69.73755000000001 135.84899099999998 69.73755000000001 135.747307 C 69.73755000000001 129.764153 74.58777 124.91387200000001 80.57092400000002 124.91387200000001 C 86.55407800000003 124.91387200000001 91.40442000000002 129.76415300000002 91.40442000000002 135.747307 C 91.40442000000002 137.992363 90.72131500000002 140.077812 89.55188100000002 141.807488 L 108.45923000000002 162.333977 C 110.02673500000002 161.452324 111.83227700000002 160.943962 113.75879100000002 160.943962 C 115.88037300000002 160.943962 117.85327300000002 161.563042 119.52429400000001 162.616997 L 136.274416 146.179558 C 135.286379 144.54583 134.707277 142.637139 134.707277 140.58855499999999 C 134.707277 134.60540099999997 139.55761900000002 129.75511999999998 145.540773 129.75511999999998 C 146.843874 129.75511999999998 148.087526 129.99694099999996 149.24463 130.418694 L 169.10254 100.26421399999998 C 167.275636 98.32494399999999 166.148438 95.71923099999998 166.148438 92.84477999999999 C 166.148438 86.86162599999999 170.998658 82.01128399999999 176.981812 82.01128399999999 C 182.96496599999998 82.01128399999999 187.815308 86.86162599999999 187.815308 92.84477999999999 Z" stroke-linecap="round"/></g></g></g></g><g style="" paint-order="stroke" transform="matrix(0.978592, 0, 0, 0.978592, 241.448456, 336.518585)"><g transform="matrix(1 0 0 1 0 0)" id="text-logo-path-0"><path style="stroke: rgb(255,255,255); stroke-width: 0; stroke-dasharray: none; stroke-linecap: butt; stroke-dashoffset: 0; stroke-linejoin: miter; stroke-miterlimit: 4; fill: rgb(255,255,255); fill-rule: nonzero; opacity: 1;" paint-order="stroke" transform=" translate(-218.46999999999997, 18.55)" d="M 11.29 -27.45 C 11.29 -29.04 13.46 -30 15.53 -30 C 18.6 -30 22.05 -27.72 24.11 -25.23 L 30.21 -30.69 C 26.18 -35.67 21.78 -37.95 16.22 -37.95 C 8.48 -37.95 2.6 -33.5 2.6 -27.72 C 2.6 -16.8 23.11 -14.89 23.11 -10.07 C 23.11 -8.48 21.09 -7.1 18.29 -7.1 C 13.99 -7.05 9.17 -10.18 6.52 -12.77 L 1.54 -6.2 C 5.78 -1.8 11.77 0.85 17.91 0.85 C 23.53 0.85 31.75 -2.92 31.75 -10.18 C 31.75 -21.57 11.29 -22.84 11.29 -27.45 Z M 56.66 -29.15 L 67.79 -29.15 L 67.79 -37.1 L 37.05 -37.1 L 37.05 -29.15 L 48.18 -29.15 L 48.18 0 L 56.66 0 Z M 101.55 -37.1 L 74.89 -37.1 L 74.89 0 L 101.55 0 L 101.55 -7.95 L 83.37 -7.95 L 83.37 -15.37 L 98.37 -15.37 L 98.37 -23.32 L 83.37 -23.32 L 83.37 -29.15 L 101.55 -29.15 Z M 126.46 -37.1 L 110.19 -37.1 L 110.19 0 L 118.67 0 L 118.67 -13.57 L 126.46 -13.57 C 133.72 -13.57 138.75 -18.07 138.75 -25.33 C 138.75 -32.54 133.72 -37.1 126.46 -37.1 Z M 130.27 -25.33 C 130.27 -22.9 128.63 -21.52 126.35 -21.52 L 118.67 -21.52 L 118.67 -29.15 L 126.35 -29.15 C 128.63 -29.15 130.27 -27.72 130.27 -25.33 Z M 190.59 -37.1 L 190.59 -14.89 C 190.59 -10.33 187.57 -7.1 183.17 -7.1 C 178.82 -7.1 175.75 -10.33 175.75 -14.89 L 175.75 -37.1 L 167.27 -37.1 L 167.27 -15.11 C 167.27 -5.72 173.84 0.85 183.17 0.85 C 192.55 0.85 199.07 -5.72 199.07 -15.11 L 199.07 -37.1 Z M 224.61 -37.1 L 208.34 -37.1 L 208.34 0 L 216.82 0 L 216.82 -13.57 L 224.61 -13.57 C 231.87 -13.57 236.91 -18.07 236.91 -25.33 C 236.91 -32.54 231.87 -37.1 224.61 -37.1 Z M 228.43 -25.33 C 228.43 -22.9 226.79 -21.52 224.51 -21.52 L 216.82 -21.52 L 216.82 -29.15 L 224.51 -29.15 C 226.79 -29.15 228.43 -27.72 228.43 -25.33 Z M 283.81 0.85 C 290.02 0.85 295.21 -1.48 298.65 -5.51 L 298.65 -20.25 L 283.81 -20.25 L 283.81 -12.83 L 290.17 -12.83 L 290.17 -9.01 C 288.43 -7.79 286.25 -7.1 283.81 -7.1 C 277.4 -7.1 272.9 -11.82 272.9 -18.55 C 272.9 -25.28 277.4 -30 283.81 -30 C 286.89 -30 289.54 -28.88 291.5 -27.03 L 297.06 -33.23 C 293.67 -36.25 289.11 -37.95 283.81 -37.95 C 272.42 -37.95 264.42 -30.05 264.42 -18.6 C 264.42 -7.15 272.42 0.85 283.81 0.85 Z M 323.62 -37.1 L 307.35 -37.1 L 307.35 0 L 315.83 0 L 315.83 -13.57 L 319.75 -13.57 L 326.9 0 L 335.91 0 L 328.39 -14.31 C 333 -15.85 335.91 -19.82 335.91 -25.33 C 335.91 -32.54 330.88 -37.1 323.62 -37.1 Z M 327.43 -25.33 C 327.43 -22.9 325.79 -21.52 323.51 -21.52 L 315.83 -21.52 L 315.83 -29.15 L 323.51 -29.15 C 325.79 -29.15 327.43 -27.72 327.43 -25.33 Z M 362.15 0.85 C 373.6 0.85 381.55 -7.21 381.55 -18.6 C 381.55 -30 373.54 -37.95 362.15 -37.95 C 350.75 -37.95 342.75 -30 342.75 -18.6 C 342.75 -7.15 350.7 0.85 362.15 0.85 Z M 362.15 -7.1 C 355.74 -7.1 351.23 -11.82 351.23 -18.55 C 351.23 -25.28 355.74 -30 362.15 -30 C 368.56 -30 373.07 -25.28 373.07 -18.55 C 373.07 -11.82 368.56 -7.1 362.15 -7.1 Z M 411.12 -22.84 L 416.69 0 L 426.86 0 L 435.4 -37.1 L 426.39 -37.1 L 421.09 -12.35 L 415.1 -37.1 L 407.25 -37.1 L 401.26 -12.19 L 395.91 -37.1 L 386.9 -37.1 L 395.43 0 L 405.66 0 Z" stroke-linecap="round"/></g></g><g id="tagline-eeba38a1-e75c-43a1-ad3d-6af738260e4a-logo-path-0" transform="matrix(1.921154, 0, 0, 1.921154, -455.756989, 509.282257)"><path style="stroke: none; stroke-width: 0; stroke-dasharray: none; stroke-linecap: butt; stroke-dashoffset: 0; stroke-linejoin: miter; stroke-miterlimit: 4; fill: rgb(255,255,255); fill-rule: nonzero; opacity: 1;" paint-order="stroke" d="M 253.062 -65.926 L 253.062 -52.626 L 254.582 -52.626 L 254.582 -65.926 L 253.062 -65.926 Z M 258.072 -65.926 L 258.072 -52.626 L 259.592 -52.626 L 259.592 -64.386 L 266.812 -52.626 L 269.092 -52.626 L 269.092 -65.926 L 267.572 -65.926 L 267.572 -54.166 L 260.352 -65.926 L 258.072 -65.926 Z M 277.342 -52.626 L 279.392 -52.626 L 284.142 -65.926 L 282.542 -65.926 L 278.362 -54.226 L 274.182 -65.926 L 272.592 -65.926 L 277.342 -52.626 Z M 287.642 -65.926 L 287.642 -52.626 L 296.952 -52.626 L 296.952 -54.056 L 289.162 -54.056 L 289.162 -58.576 L 295.052 -58.576 L 295.052 -59.996 L 289.162 -59.996 L 289.162 -64.506 L 296.952 -64.506 L 296.952 -65.926 L 287.642 -65.926 Z M 301.812 -56.256 L 300.442 -55.646 C 301.282 -53.846 303.162 -52.436 305.462 -52.436 C 308.632 -52.436 310.442 -54.486 310.442 -56.316 C 310.442 -58.916 307.662 -59.556 305.532 -60.146 C 303.562 -60.696 302.172 -61.116 302.172 -62.466 C 302.172 -63.856 303.672 -64.686 305.132 -64.686 C 307.492 -64.686 308.082 -63.686 308.522 -62.586 L 309.922 -63.116 C 309.452 -64.326 308.402 -66.116 305.132 -66.116 C 303.162 -66.116 300.652 -64.766 300.652 -62.466 C 300.652 -60.056 303.082 -59.356 305.122 -58.786 C 307.242 -58.196 308.922 -57.796 308.922 -56.316 C 308.922 -55.096 307.832 -53.856 305.462 -53.856 C 303.752 -53.856 302.492 -54.796 301.812 -56.256 Z M 318.112 -52.626 L 319.632 -52.626 L 319.632 -64.506 L 323.812 -64.506 L 323.812 -65.926 L 313.932 -65.926 L 313.932 -64.506 L 318.112 -64.506 L 318.112 -52.626 Z M 336.922 -52.626 L 338.972 -52.626 L 342.552 -63.496 L 346.122 -52.626 L 348.172 -52.626 L 352.162 -65.926 L 350.562 -65.926 L 347.122 -54.426 L 343.342 -65.926 L 341.752 -65.926 L 337.972 -54.426 L 334.532 -65.926 L 332.932 -65.926 L 336.922 -52.626 Z M 355.662 -65.926 L 355.662 -52.626 L 357.182 -52.626 L 357.182 -65.926 L 355.662 -65.926 Z M 364.852 -52.626 L 366.372 -52.626 L 366.372 -64.506 L 370.552 -64.506 L 370.552 -65.926 L 360.672 -65.926 L 360.672 -64.506 L 364.852 -64.506 L 364.852 -52.626 Z M 374.052 -65.926 L 374.052 -52.626 L 375.572 -52.626 L 375.572 -58.576 L 383.552 -58.576 L 383.552 -52.626 L 385.072 -52.626 L 385.072 -65.926 L 383.552 -65.926 L 383.552 -59.996 L 375.572 -59.996 L 375.572 -65.926 L 374.052 -65.926 Z M 401.032 -52.436 C 403.842 -52.436 406.292 -54.166 407.322 -56.616 L 405.742 -56.616 C 404.882 -54.906 403.182 -53.856 401.032 -53.856 C 397.932 -53.856 395.712 -56.086 395.712 -59.276 C 395.712 -62.466 397.932 -64.686 401.032 -64.686 C 402.742 -64.686 404.182 -64.006 405.132 -62.866 L 406.252 -63.686 C 405.002 -65.166 403.122 -66.116 401.032 -66.116 C 397.272 -66.116 394.192 -63.036 394.192 -59.276 C 394.192 -55.516 397.272 -52.436 401.032 -52.436 Z M 417.652 -53.856 C 414.562 -53.856 412.332 -56.086 412.332 -59.276 C 412.332 -62.466 414.562 -64.686 417.652 -64.686 C 420.752 -64.686 422.972 -62.466 422.972 -59.276 C 422.972 -56.086 420.752 -53.856 417.652 -53.856 Z M 410.812 -59.276 C 410.812 -55.516 413.892 -52.436 417.652 -52.436 C 421.412 -52.436 424.492 -55.516 424.492 -59.276 C 424.492 -63.036 421.412 -66.116 417.652 -66.116 C 413.892 -66.116 410.812 -63.036 410.812 -59.276 Z M 427.992 -65.926 L 427.992 -52.626 L 429.512 -52.626 L 429.512 -64.386 L 436.732 -52.626 L 439.012 -52.626 L 439.012 -65.926 L 437.492 -65.926 L 437.492 -54.166 L 430.272 -65.926 L 427.992 -65.926 Z M 442.512 -52.626 L 444.032 -52.626 L 444.032 -58.576 L 449.922 -58.576 L 449.922 -59.996 L 444.032 -59.996 L 444.032 -64.506 L 451.822 -64.506 L 451.822 -65.926 L 442.512 -65.926 L 442.512 -52.626 Z M 455.312 -65.926 L 455.312 -52.626 L 456.832 -52.626 L 456.832 -65.926 L 455.312 -65.926 Z M 460.332 -65.926 L 460.332 -52.626 L 464.322 -52.626 C 468.082 -52.626 471.162 -55.516 471.162 -59.276 C 471.162 -63.036 468.082 -65.926 464.322 -65.926 L 460.332 -65.926 Z M 461.852 -54.056 L 461.852 -64.506 L 464.322 -64.506 C 467.412 -64.506 469.642 -62.466 469.642 -59.276 C 469.642 -56.086 467.412 -54.056 464.322 -54.056 L 461.852 -54.056 Z M 474.652 -65.926 L 474.652 -52.626 L 483.962 -52.626 L 483.962 -54.056 L 476.172 -54.056 L 476.172 -58.576 L 482.062 -58.576 L 482.062 -59.996 L 476.172 -59.996 L 476.172 -64.506 L 483.962 -64.506 L 483.962 -65.926 L 474.652 -65.926 Z M 487.462 -65.926 L 487.462 -52.626 L 488.982 -52.626 L 488.982 -64.386 L 496.202 -52.626 L 498.482 -52.626 L 498.482 -65.926 L 496.962 -65.926 L 496.962 -54.166 L 489.742 -65.926 L 487.462 -65.926 Z M 508.822 -52.436 C 511.632 -52.436 514.082 -54.166 515.102 -56.616 L 513.532 -56.616 C 512.672 -54.906 510.962 -53.856 508.822 -53.856 C 505.722 -53.856 503.502 -56.086 503.502 -59.276 C 503.502 -62.466 505.722 -64.686 508.822 -64.686 C 510.532 -64.686 511.972 -64.006 512.922 -62.866 L 514.042 -63.686 C 512.792 -65.166 510.912 -66.116 508.822 -66.116 C 505.052 -66.116 501.982 -63.036 501.982 -59.276 C 501.982 -55.516 505.052 -52.436 508.822 -52.436 Z M 518.602 -65.926 L 518.602 -52.626 L 527.912 -52.626 L 527.912 -54.056 L 520.122 -54.056 L 520.122 -58.576 L 526.012 -58.576 L 526.012 -59.996 L 520.122 -59.996 L 520.122 -64.506 L 527.912 -64.506 L 527.912 -65.926 L 518.602 -65.926 Z M 533.312 -53.236 C 533.312 -53.956 532.892 -54.336 532.362 -54.336 C 531.822 -54.336 531.412 -53.916 531.412 -53.386 C 531.412 -52.856 531.822 -52.436 532.362 -52.436 C 532.472 -52.436 532.572 -52.456 532.662 -52.496 C 532.552 -52.016 532.282 -51.736 531.942 -51.466 L 532.152 -51.216 C 532.852 -51.736 533.312 -52.626 533.312 -53.236 Z" stroke-linecap="round"/></g><g style="" paint-order="stroke" transform="matrix(1.921154, 0, 0, 1.921154, -461.672699, 564.359558)"><g transform="matrix(1 0 0 1 0 0)" id="group-1"><path style="stroke: none; stroke-width: 0; stroke-dasharray: none; stroke-linecap: butt; stroke-dashoffset: 0; stroke-linejoin: miter; stroke-miterlimit: 4; fill: rgb(255,255,255); fill-rule: nonzero; opacity: 1;" paint-order="stroke" d="M 262.791 -58.075 C 264.631 -58.075 266.321 -58.815 267.561 -60.035 L 267.561 -58.265 L 269.081 -58.265 L 269.081 -64.815 L 263.001 -64.815 L 263.001 -63.395 L 267.561 -63.395 L 267.561 -62.405 C 266.701 -60.695 264.941 -59.495 262.791 -59.495 C 259.691 -59.495 257.471 -61.725 257.471 -64.915 C 257.471 -68.105 259.691 -70.325 262.791 -70.325 C 264.501 -70.325 265.941 -69.645 266.891 -68.505 L 268.021 -69.325 C 266.761 -70.805 264.881 -71.755 262.791 -71.755 C 259.031 -71.755 255.951 -68.675 255.951 -64.915 C 255.951 -61.155 259.031 -58.075 262.791 -58.075 Z M 272.581 -58.265 L 274.101 -58.265 L 274.101 -63.835 L 276.451 -63.835 C 279.801 -63.835 280.921 -61.395 280.921 -58.265 L 282.441 -58.265 C 282.441 -60.625 281.731 -62.935 279.951 -64.235 C 281.221 -64.855 282.111 -66.185 282.111 -67.725 C 282.111 -69.815 280.371 -71.565 278.281 -71.565 L 272.581 -71.565 L 272.581 -58.265 Z M 274.101 -65.255 L 274.101 -70.145 L 278.181 -70.145 C 279.511 -70.145 280.611 -69.035 280.611 -67.705 C 280.611 -66.355 281.296 -66.147 279.966 -66.147 L 274.101 -65.255 Z M 292.771 -59.495 C 289.681 -59.495 287.451 -61.725 287.451 -64.915 C 287.451 -68.105 289.681 -70.325 292.771 -70.325 C 295.871 -70.325 298.091 -68.105 298.091 -64.915 C 298.091 -61.725 295.871 -59.495 292.771 -59.495 Z M 285.931 -64.915 C 285.931 -61.155 289.011 -58.075 292.771 -58.075 C 296.531 -58.075 299.611 -61.155 299.611 -64.915 C 299.611 -68.675 296.531 -71.755 292.771 -71.755 C 289.011 -71.755 285.931 -68.675 285.931 -64.915 Z M 307.101 -58.265 L 309.151 -58.265 L 312.721 -69.135 L 316.291 -58.265 L 318.351 -58.265 L 322.341 -71.565 L 320.741 -71.565 L 317.301 -60.065 L 313.521 -71.565 L 311.921 -71.565 L 308.141 -60.065 L 304.701 -71.565 L 303.111 -71.565 L 307.101 -58.265 Z M 335.451 -58.265 L 337.501 -58.265 L 341.071 -69.135 L 344.641 -58.265 L 346.691 -58.265 L 350.681 -71.565 L 349.091 -71.565 L 345.651 -60.065 L 341.871 -71.565 L 340.271 -71.565 L 336.491 -60.065 L 333.051 -71.565 L 331.461 -71.565 L 335.451 -58.265 Z M 354.181 -71.565 L 354.181 -58.265 L 355.701 -58.265 L 355.701 -71.565 L 354.181 -71.565 Z M 363.381 -58.265 L 364.901 -58.265 L 364.901 -70.145 L 369.081 -70.145 L 369.081 -71.565 L 359.201 -71.565 L 359.201 -70.145 L 363.381 -70.145 L 363.381 -58.265 Z M 372.571 -71.565 L 372.571 -58.265 L 374.091 -58.265 L 374.091 -64.215 L 382.071 -64.215 L 382.071 -58.265 L 383.591 -58.265 L 383.591 -71.565 L 382.071 -71.565 L 382.071 -65.635 L 374.091 -65.635 L 374.091 -71.565 L 372.571 -71.565 Z M 392.711 -71.565 L 392.711 -58.265 L 394.231 -58.265 L 394.231 -63.265 L 398.411 -63.265 C 400.691 -63.265 402.551 -65.125 402.551 -67.425 C 402.551 -69.705 400.691 -71.565 398.411 -71.565 L 392.711 -71.565 Z M 394.231 -64.685 L 394.231 -70.145 L 398.321 -70.145 C 399.821 -70.145 401.031 -68.925 401.031 -67.425 C 401.031 -65.905 399.821 -64.685 398.321 -64.685 L 394.231 -64.685 Z M 411.101 -58.075 C 413.841 -58.075 416.121 -60.355 416.121 -63.125 L 416.121 -71.565 L 414.601 -71.565 L 414.601 -63.035 C 414.601 -61.095 413.001 -59.495 411.101 -59.495 C 409.171 -59.495 407.571 -61.095 407.571 -63.035 L 407.571 -71.565 L 406.051 -71.565 L 406.051 -63.125 C 406.051 -60.355 408.331 -58.075 411.101 -58.075 Z M 419.621 -58.265 L 421.141 -58.265 L 421.141 -63.835 L 423.491 -63.835 C 426.841 -63.835 427.961 -61.395 427.961 -58.265 L 429.481 -58.265 C 429.481 -60.625 428.771 -62.935 426.991 -64.235 C 428.261 -64.855 429.151 -66.185 429.151 -67.725 C 429.151 -69.815 427.411 -71.565 425.321 -71.565 L 419.621 -71.565 L 419.621 -58.265 Z M 421.141 -65.255 L 421.141 -70.145 L 425.221 -70.145 C 426.551 -70.145 427.651 -69.035 427.651 -67.705 C 427.651 -66.355 426.551 -65.255 425.221 -65.255 L 421.141 -65.255 Z M 432.971 -71.565 L 432.971 -58.265 L 434.491 -58.265 L 434.491 -63.265 L 438.671 -63.265 C 440.951 -63.265 442.821 -65.125 442.821 -67.425 C 442.821 -69.705 440.951 -71.565 438.671 -71.565 L 432.971 -71.565 Z M 434.491 -64.685 L 434.491 -70.145 L 438.581 -70.145 C 440.081 -70.145 441.301 -68.925 441.301 -67.425 C 441.301 -65.905 440.081 -64.685 438.581 -64.685 L 434.491 -64.685 Z M 453.151 -59.495 C 450.051 -59.495 447.831 -61.725 447.831 -64.915 C 447.831 -68.105 450.051 -70.325 453.151 -70.325 C 456.251 -70.325 458.471 -68.105 458.471 -64.915 C 458.471 -61.725 456.251 -59.495 453.151 -59.495 Z M 446.311 -64.915 C 446.311 -61.155 449.391 -58.075 453.151 -58.075 C 456.911 -58.075 459.991 -61.155 459.991 -64.915 C 459.991 -68.675 456.911 -71.755 453.151 -71.755 C 449.391 -71.755 446.311 -68.675 446.311 -64.915 Z M 464.861 -61.895 L 463.491 -61.285 C 464.321 -59.485 466.201 -58.075 468.501 -58.075 C 471.681 -58.075 473.481 -60.125 473.481 -61.955 C 473.481 -64.555 470.711 -65.195 468.581 -65.785 C 466.601 -66.335 465.221 -66.755 465.221 -68.105 C 465.221 -69.495 466.721 -70.325 468.181 -70.325 C 470.541 -70.325 471.131 -69.325 471.561 -68.225 L 472.971 -68.755 C 472.491 -69.965 471.451 -71.755 468.181 -71.755 C 466.201 -71.755 463.701 -70.405 463.701 -68.105 C 463.701 -65.695 466.131 -64.995 468.161 -64.425 C 470.291 -63.835 471.961 -63.435 471.961 -61.955 C 471.961 -60.735 470.881 -59.495 468.501 -59.495 C 466.791 -59.495 465.541 -60.435 464.861 -61.895 Z M 476.981 -71.565 L 476.981 -58.265 L 486.291 -58.265 L 486.291 -59.695 L 478.501 -59.695 L 478.501 -64.215 L 484.391 -64.215 L 484.391 -65.635 L 478.501 -65.635 L 478.501 -70.145 L 486.291 -70.145 L 486.291 -71.565 L 476.981 -71.565 Z" stroke-linecap="round"/></g></g></svg>